<?xml version="1.0" encoding="UTF-8"?>
<svg version="1.1" viewBox="0 360 2048 300" width="590" height="86" xmlns="http://www.w3.org/2000/svg">
<path transform="translate(0)" d="m0 0h2048v958h-2048z" fill="none"/>
<path transform="translate(371,394)" d="m0 0h14l3 7 15 49 11 35 13 42 2 5v4h2l1-8 5-17 20-61 16-51 1-4 3-1h23l1 1 5 43 4 42 5 67v18l-1 1h-18l-1-1-4-40-7-87-1-5-3 6-12 40-28 84-3 3-3 1h-11l-4-2-10-27-13-41-17-53-3-13-6 52-6 60-2 21-1 2h-15l-2-1v-12l4-52 5-51 6-54 1-1z" fill="#00b2e6"/>
<path transform="translate(576,392)" d="m0 0h29l14 3 14 7 9 8 6 10 4 11 1 6v16l-3 14-8 15-10 9-12 6-11 3-12 1h-27l-1 65h-20v-170l9-2z" fill="#00b2e6"/>
<path transform="translate(239,394)" d="m0 0h23l4 9 19 56 14 41 14 43 6 21-1 2-9 1h-11l-3-5-12-37-3-11h-62l-3 11-12 38-2 4-20-2 13-43 15-45 15-43 13-36z" fill="#00b2e6"/>
<path transform="translate(1447,393)" d="m0 0h7l5 5 14 41 13 41 16 48 4 15 19-57 16-49 11-31 4-11 1-1 14-1 3 2 2 13 6 59 5 59 2 32v8h-13l-2-2-11-136-1-9-8 26-13 40-13 37-12 36-4 8-11 1-3-2-16-49-12-38-10-31-8-25v-3h-2v18l-12 125-1 4h-13l-1-1 1-19 7-75 7-66 2-10z" fill="#00b2e6"/>
<path transform="translate(995,394)" d="m0 0h15l4 1v111l-2 21-4 12-6 11-8 8-14 7-13 3h-27l-16-4-13-7-7-7-7-13-3-13-1-10v-119h22l1 123 3 12 6 10 8 5 7 2 9 1h10l15-3 9-6 6-10 2-7 1-12 1-115z" fill="#00b2e6"/>
<path transform="translate(1792,392)" d="m0 0h28l14 2 13 5 11 7 8 8 9 14 5 13 3 15 1 12v21l-3 21-5 16-7 13-8 10-8 7-16 8-13 3h-50l-15-1-4-1v-169l1-1 19-2zm-8 14-13 1-2 2v144l1 1 12 1h35l12-2 14-7 10-9 8-14 5-17 2-12v-29l-3-18-6-16-8-11-8-7-11-5-11-2z" fill="#00b2e6"/>
<path transform="translate(1103,391)" d="m0 0 26 2 7 2 1 1v14l-2 4h-9l-14-2h-23l-11 3-8 6-3 7v13l4 8 8 8 23 12 20 11 9 7 7 7 6 12 1 5v20l-4 11-6 9-8 8-13 6-12 3-17 1-17-2-20-4-4-2 1-10 2-9 2-1 16 5 16 3h18l10-3 8-6 5-8 1-3v-10l-4-10-5-5-10-8-27-14-14-9-10-9-6-9-3-9-1-9 2-11 4-10 6-8 9-8 10-5 13-3z" fill="#00b2e6"/>
<path transform="translate(1627,395)" d="m0 0h93v8l-2 5-75 1v37l1 21 38 1 21 1v10l-2 3h-59l1 70h81l1 1-1 12-1 1h-94l-1-1z" fill="#00b2e6"/>
<path transform="translate(683,395)" d="m0 0h21l1 150 70 2 1 1-1 17-2 1h-90l-1-110v-48z" fill="#00b2e6"/>
<path transform="translate(574,411)" d="m0 0h32l10 3 7 6 6 12 1 4v23l-5 10-8 8-9 4-15 2h-18l-5-2-1-2v-64l1-3z" fill="#2e2e2e"/>
<path transform="translate(842,394)" d="m0 0h21l-1 9-8 32-18 71-12 47-4 13h-22l4-16 9-37 23-93 7-25z" fill="#00b2e6"/>
<path transform="translate(1287,360)" d="m0 0 15 1v237l-1 1h-14z" fill="#00b2e6"/>
<path transform="translate(249,419)" d="m0 0h2l13 44 9 28v4h-48l1-6 14-41 8-25z" fill="#2e2e2e"/>
</svg>
