<svg id="Layer_1" data-name="Layer 1" xmlns="http://www.w3.org/2000/svg" viewBox="0 0 580 386"><title>a</title><path d="M385.31922,191.12185c0-2.54528-2.49481-3.96232-4.17332-2.37371l-2.83816,2.68968-89.47482,84.8508s-3.25779,1.30886-5.249-.47833L266.25036,266.586l-10.61181-5.21685L243.05791,255.674l-12.58064-5.957-13.77064-6.32714c-3.6848-1.75081-6.21788-5.80353-6.55358-10.46977-.20776-2.86239-.42892-6.1664-.58775-9.24807,1.9158.95682,4.082,1.92157,6.55167,2.869l66.13995,31.11047s5.8059,2.15476,7.85511-1.07746l92.09511-88.21351s.01312-.02345.03663-.06759l.06725-.06468a5.50943,5.50943,0,0,0,.64489-6.78348c0-2.54948-2.49344-3.96556-4.175-2.37128l-2.83461,2.68774-.00027.00016-89.477,84.8466s-3.25724,1.311-5.24932-.47348l-17.33187-9.22526-10.61563-5.21879-12.579-5.69017-12.579-5.95942L214.3395,213.711c-3.67879-1.74919-6.211-5.79706-6.55139-10.47058-.61372-8.42869-1.32914-20.68355-.20913-19.6614,0,0,71.3324,33.31034,71.64022,33.371,1.34882.26617,5.09185.83474,6.31875-.74935.25533-.32972,83.35017-74.506,83.35017-74.506s5.80563-5.38713.56916-9.6968L297.2837,99.1365s-11.38381-3.50162-16.39256,1.61611L202.842,165.21368c-.2094.17287-.427.33069-.64789.48221-1.42482.977-8.18534,6.771-8.38491,28.86305a14.355,14.355,0,0,0,.1263,1.99887c.31547,2.38826,1.13013,8.55466,1.65992,12.56631.3614,2.738,1.08475,6.11449,1.08475,6.11449a87.78683,87.78683,0,0,0-.51121,8.99871c0,.66785,1.25861,10.55111,1.79278,14.5676a12.91625,12.91625,0,0,0,3.746,7.71685c2.82258,2.67174,7.90377,6.29092,16.769,9.69373l66.14487,31.11176s5.8059,2.157,7.85046-1.07406l92.09948-88.21755a.37658.37658,0,0,0,.038-.06323l.06124-.06323A5.51581,5.51581,0,0,0,385.31922,191.12185Z"/></svg>